<?xml version="1.0" encoding="UTF-8"?>
<svg width="327px" height="116px" viewBox="0 0 327 116" version="1.1" xmlns="http://www.w3.org/2000/svg" xmlns:xlink="http://www.w3.org/1999/xlink">
    <!-- Generator: Sketch 61.2 (89653) - https://sketch.com -->
    <title>Logo</title>
    <desc>Created with Sketch.</desc>
    <g id="WallStreetWeekly2.0" stroke="none" stroke-width="1" fill="none" fill-rule="evenodd">
        <g id="Uberstunde-V2" transform="translate(-556.000000, -100.000000)" fill="#020203">
            <path d="M864.51578,101.364 C871.34403,99.9351 875.87878,100.38005 878.80588,102.7588 C881.44588,104.90325 882.67513,108.42435 882.67513,113.8391 L882.67513,113.8391 L882.67513,132.03585 C882.67513,139.677 878.38183,145.03895 870.58723,147.13445 L870.58723,147.13445 L862.28058,149.2261 C865.98978,157.8215 872.22403,163.45185 875.48498,165.6645 C869.47018,166.1309 846.28658,168.4827 837.46568,154.6249 L837.46568,154.6249 L697.07048,185.29235 C690.57278,186.66075 686.18818,186.18775 683.25888,183.8112 C680.68103,181.71955 679.42813,178.22595 679.42813,173.1313 L679.42813,173.1313 L679.42813,171.6694 L603.44563,188.3212 C600.49708,206.9277 571.42683,215.093 571.42683,215.093 C571.42683,215.093 578.17918,205.67095 578.30953,193.8355 L578.30953,193.8355 L572.41573,195.2941 C567.94698,196.3512 564.39508,195.8584 561.83648,193.83495 C558.53703,191.2252 556.99978,186.22625 556.99978,178.10385 L556.99978,178.10385 L556.99978,158.77355 C556.99978,150.71055 564.32688,149.10785 569.17568,148.04855 L569.17568,148.04855 L572.65938,147.3264 L572.73913,151.24845 L569.99463,151.81 C563.67183,153.19215 560.84978,154.5259 560.84978,158.77355 L560.84978,158.77355 L560.84978,178.10385 C560.84978,184.86115 561.95418,189.01915 564.22513,190.81545 C565.83663,192.0898 568.21923,192.3318 571.50988,191.5519 L571.50988,191.5519 L581.97913,188.9614 L582.10178,191.2879 C582.50273,198.89 580.83183,204.60835 579.21043,208.2598 C586.18388,205.44545 598.59573,198.76295 599.79363,186.5425 L599.79363,186.5425 L599.93058,185.1499 L683.27813,166.88495 L683.27813,173.1313 C683.27813,176.99175 684.06518,179.5069 685.68493,180.8214 C687.61543,182.38835 691.07493,182.6199 696.26308,181.52815 L696.26308,181.52815 L839.36978,150.2678 L840.06938,151.50035 C846.13863,162.18685 860.01623,163.2775 867.45718,163.0223 C864.47673,160.32455 860.58878,155.7392 857.84868,148.5936 L857.84868,148.5936 L857.07208,146.5674 L869.61758,143.4082 C873.80143,142.28345 878.82513,139.3899 878.82513,132.03585 L878.82513,132.03585 L878.82513,113.8391 C878.82513,109.7317 878.02488,107.08455 876.37818,105.74695 C874.44768,104.1778 870.82868,103.9765 865.32098,105.12875 L865.32098,105.12875 L703.58743,140.5152 L703.58743,131.00075 C703.58743,128.69185 702.73053,126.73055 701.17403,125.47765 C699.61753,124.2242 697.51818,123.8062 695.26208,124.299 L695.26208,124.299 L599.20073,145.25015 L599.16223,141.33195 L694.44093,120.53755 C697.85423,119.7923 701.10473,120.48035 703.58798,122.4785 C706.07068,124.47665 707.43743,127.5033 707.43743,131.00075 L707.43743,131.00075 L707.43743,135.73185 Z M603.68356,149.883075 L603.74571,163.543975 C603.91731,171.344075 603.18911,173.823475 599.85171,176.785775 C596.84651,179.062225 596.32126,179.264625 585.84156,181.598275 C576.42006,183.569475 575.61706,183.700925 573.33566,183.279075 C570.74406,182.839625 569.08856,181.274325 568.54076,178.766875 C568.12056,176.844625 568.03201,175.637925 568.01386,171.745575 L567.91156,157.699125 L576.39476,155.845625 L576.49376,166.870375 C576.51081,167.349425 576.50421,167.919775 576.48276,168.624875 C576.48221,171.427675 576.52511,172.424825 576.73521,173.386225 C577.26486,175.810075 578.94786,176.098825 584.84001,174.811275 C591.69356,173.313625 593.36171,172.730625 594.29396,171.388075 C594.99796,170.402475 595.26251,169.206775 595.26691,166.622325 C595.28286,166.093225 595.28286,166.093225 595.28286,164.692375 C595.25316,163.954825 595.23996,163.694675 595.23611,163.476875 L595.15856,151.745925 L603.68356,149.883075 Z M617.390385,146.88827 L617.452535,157.74692 C618.782985,154.21647 621.038535,152.71662 626.847085,151.44722 C630.023335,150.75312 632.905335,150.51772 634.245135,150.83837 C636.326335,151.34602 637.463735,152.54282 637.938385,154.71532 C638.349235,156.59632 638.466935,161.34337 638.211735,163.98227 C637.918585,166.84832 636.858735,168.61217 634.603185,170.11202 C632.910285,171.18232 630.476535,172.06452 627.300285,172.75862 C620.530335,174.23757 619.005185,173.87072 617.532835,170.33862 L617.546585,174.40807 L610.358085,175.97832 L610.202435,148.45852 L617.390385,146.88827 Z M715.52232,153.02715 C715.63232,153.5293 715.68182,153.95555 715.67907,154.74425 L708.15727,156.3882 L708.12042,156.22155 C707.91032,155.26015 706.85322,155.22825 703.04997,156.05985 C698.37002,157.0834 696.89107,157.9315 697.19247,159.31035 C697.41192,160.3141 698.25122,160.3493 701.92907,159.5452 L706.98577,158.44025 C713.50437,157.0152 715.85507,157.552 716.52222,160.60285 C716.87807,162.2325 716.76807,164.53315 716.29012,165.9505 C715.14172,169.311 712.22232,170.7806 702.23487,172.9641 C696.13372,174.29785 694.19827,174.4579 692.31672,173.8617 C691.00937,173.49155 690.10902,172.37505 689.75262,170.7454 C689.64317,170.2438 689.59367,169.81645 689.62007,168.9348 L697.18367,167.2815 C697.18752,167.4993 697.21502,167.6247 697.24197,167.75065 C697.51587,169.0041 698.80122,169.0734 703.85792,167.9679 C708.24527,167.00925 709.71487,166.1188 709.37662,164.5722 C709.24902,163.987 708.77217,163.6097 708.11822,163.6218 C707.42192,163.6427 706.36812,163.82915 703.56807,164.44075 L699.97437,165.2267 C693.03722,166.74305 690.64527,166.21505 689.93247,162.9552 C689.26587,159.9049 690.25642,156.62415 692.31727,155.0341 C693.88972,153.81475 697.30852,152.63005 703.03402,151.37825 C712.39502,149.33225 714.78312,149.64245 715.52232,153.02715 Z M624.639935,157.57752 C620.043035,158.58182 618.555835,159.38812 617.941485,161.18662 C617.613685,162.09027 617.509185,165.22087 617.756135,166.34947 C618.239585,168.56487 619.468835,168.77772 624.817585,167.60897 C628.370035,166.83292 629.485435,166.32637 630.375885,164.99317 C630.940185,164.16927 631.105185,163.52082 631.143135,161.89227 C631.138735,160.66742 631.095835,159.66972 630.955035,158.82492 C630.786735,157.85417 630.163035,157.20297 629.212085,157.05997 C628.428335,156.88122 626.980185,157.06602 624.639935,157.57752 Z M663.842835,144.01991 C666.376135,143.99241 668.208185,145.56266 668.782935,148.19496 C669.020535,149.28176 669.100835,150.05176 669.079385,152.15826 L669.127235,154.38136 L650.071385,158.54486 C650.081285,159.59316 650.098335,160.07111 650.217135,160.61451 C650.637335,162.53676 651.856685,162.70836 656.787985,161.63146 C660.925085,160.72726 661.878235,160.08046 662.070735,158.15656 L669.133285,156.61326 C669.094785,159.64266 668.253285,161.40266 666.215535,162.89866 C664.401635,164.21481 662.041585,165.03651 656.776435,166.18711 C651.636135,167.31021 648.502785,167.60006 646.876435,167.16776 C644.776535,166.57541 643.593485,165.17016 643.063835,162.74686 C642.753891,161.32566 642.652435,158.45796 642.870235,156.04621 C643.205735,151.76941 644.796885,149.23281 648.148035,147.53771 C649.477385,146.80896 652.031585,146.07581 656.085635,145.18976 C659.470335,144.45056 662.264885,144.01496 663.842835,144.01991 Z M730.546615,141.029285 L730.548265,145.845635 L742.290765,143.278785 L742.314965,148.397085 L730.572465,150.963385 L730.641765,157.690985 C730.647815,158.522035 730.673665,159.041235 730.764965,159.459785 C731.048765,160.755585 731.868265,161.101535 733.832315,160.671985 C736.298515,160.132985 736.890315,159.434485 736.879315,156.984785 L736.873815,156.154285 L742.389765,154.948685 L742.393065,156.567885 C742.385915,159.940485 742.075165,161.322085 740.999365,162.607435 C739.610065,164.268985 737.547015,165.245235 733.785565,166.067485 C729.398215,167.026135 727.495765,167.136685 726.109765,166.607035 C724.715515,166.036685 723.883915,165.035135 723.555015,163.530885 C723.408715,162.862635 723.360865,162.041485 723.322915,160.867235 L723.259115,152.562235 L719.581815,153.365785 L719.557615,148.248035 L723.234915,147.443935 L723.233265,142.628135 L730.546615,141.029285 Z M696.795315,140.93716 C697.032915,142.02286 697.106615,143.36431 697.029615,145.61436 L690.301465,147.08451 C690.322365,146.37941 690.291015,146.03566 690.199715,145.61821 C689.898315,144.23881 688.758715,143.83071 686.460265,144.33341 C682.866015,145.11771 681.588915,146.88651 681.611465,150.99666 L681.652165,160.40111 L674.463665,161.97191 L674.337165,141.55261 L681.232515,140.04616 L681.262765,144.59246 C682.083365,142.13671 682.391915,141.54326 683.216365,140.70726 C684.426915,139.43511 686.648365,138.38076 689.239415,137.81536 C693.752715,136.82866 696.110565,137.80271 696.795315,140.93716 Z M773.88392,136.37326 L774.01207,156.79311 L766.99132,158.32761 L766.96602,153.60476 C765.95842,157.80951 763.91627,159.48206 757.98177,160.77896 C755.01507,161.42741 753.10272,161.49561 751.42522,161.03031 C749.61297,160.55016 748.23522,159.05636 747.80622,157.09231 C747.57742,156.04786 747.41627,154.50621 747.43992,153.01296 L747.34752,142.17411 L754.53547,140.60276 L754.60532,151.14021 C754.61522,152.18851 754.64712,152.53226 754.73842,152.94971 C755.15862,154.87251 756.67497,155.19756 760.68612,154.32031 C765.40842,153.28796 766.76417,151.67811 766.74272,147.17361 L766.69542,137.94461 L773.88392,136.37326 Z M802.57049,130.80352 C804.38329,131.28312 805.76104,132.77747 806.19004,134.74097 C806.42764,135.82832 806.54369,137.15987 806.55634,138.82087 L806.60694,149.66852 L799.41899,151.23932 L799.34914,140.70297 C799.34694,140.09082 799.31174,139.52872 799.20174,139.02767 C798.74524,136.93822 797.44724,136.60877 793.39374,137.49482 C788.58839,138.54477 787.23264,140.15517 787.25409,144.66022 L787.30084,153.88867 L780.11234,155.45947 L779.98419,135.04017 L787.00494,133.50512 L787.03024,138.22907 C788.02849,133.98197 790.07999,132.35122 796.01449,131.05432 C798.98119,130.40587 800.89299,130.33822 802.57049,130.80352 Z M655.906885,149.78226 C652.939635,150.43071 651.690035,150.92296 650.925535,151.83376 C650.258935,152.59221 650.029585,153.34351 650.066985,154.51721 L662.102635,151.88766 C662.076785,151.36791 662.054235,151.06651 661.981085,150.73211 C661.597735,148.97706 660.461435,148.78676 655.906885,149.78226 Z M580.742345,143.88604 C582.692095,143.88604 584.273345,145.46674 584.273345,147.41704 C584.273345,149.36734 582.692095,150.94859 580.742345,150.94859 C578.792045,150.94859 577.210795,149.36734 577.210795,147.41704 C577.210795,145.46674 578.792045,143.88604 580.742345,143.88604 Z M590.801295,141.70672 C592.751595,141.70672 594.332845,143.28797 594.332845,145.23827 C594.332845,147.18857 592.751595,148.76927 590.801295,148.76927 C588.850995,148.76927 587.270295,147.18857 587.270295,145.23827 C587.270295,143.28797 588.850995,141.70672 590.801295,141.70672 Z M839.671235,114.88652 L839.829635,142.40687 L832.891935,143.92267 L832.879835,139.45997 C831.659385,143.49202 829.607885,145.12277 824.133735,146.31902 C821.584485,146.87672 818.980235,147.18252 817.319235,147.19572 C814.280485,147.11542 812.818035,146.03412 812.270235,143.52667 C811.566785,140.30917 811.835185,133.72567 812.725085,131.38597 C813.881185,128.46217 817.326935,126.39582 823.260885,125.09892 C825.809585,124.54122 827.921035,124.38667 829.368085,124.59622 C830.689735,124.83217 831.370085,125.34037 832.542135,127.09872 L832.482735,116.45787 L839.671235,114.88652 Z M825.516435,130.21062 C821.755535,131.03232 820.681935,131.52952 819.883885,132.88692 C819.412535,133.73392 819.224435,134.47587 819.158435,135.97902 C819.103435,137.12962 819.195835,138.55412 819.332785,139.18057 C819.771685,141.18642 820.999835,141.39982 825.763935,140.35812 C829.733835,139.49022 831.290885,138.79997 831.999835,137.63782 C832.742335,136.42507 832.965635,133.44242 832.490985,131.26992 C832.052085,129.26352 830.781585,129.05947 825.516435,130.21062 Z M866.14774,116.380815 C868.68104,116.353315 870.51309,117.922465 871.08839,120.554765 C871.32599,121.642115 871.40684,122.412115 871.38594,124.518615 L871.43324,126.741715 L852.37794,130.906865 C852.38784,131.955715 852.40489,132.433115 852.52369,132.977065 C852.94389,134.898765 854.16324,135.070365 859.09454,133.992915 C863.23164,133.088165 864.18534,132.441915 864.37729,130.516915 L871.43984,128.973615 C871.40134,132.003015 870.56039,133.763015 868.52209,135.259015 C866.70874,136.575715 864.34869,137.397415 859.08299,138.548565 C853.94324,139.672215 850.80989,139.962065 849.18299,139.529765 C847.08364,138.937965 845.90114,137.532715 845.37149,135.109415 C845.060215,133.688215 844.95899,130.820515 845.17569,128.408765 C845.51119,124.131965 847.10234,121.595365 850.45294,119.899715 C851.78284,119.170965 854.33704,118.437815 858.39054,117.551215 C861.77579,116.812015 864.57034,116.375865 866.14774,116.380815 Z M858.21234,122.143715 C855.24509,122.792715 853.99549,123.284965 853.23154,124.195215 C852.56549,124.954215 852.33559,125.704965 852.37299,126.879215 L864.40809,124.249115 C864.38224,123.729365 864.35969,123.427965 864.28654,123.093015 C863.90319,121.337965 862.76744,121.148215 858.21234,122.143715 Z" id="Logo"></path>
        </g>
    </g>
</svg>